<?xml version="1.0" encoding="UTF-8"?>
<svg width="300" height="300" version="1.1" viewBox="0 0 79.375 79.375" xmlns="http://www.w3.org/2000/svg">
 <g shape-rendering="crispEdges">
  <rect x="-1.4211e-14" y="-7.1054e-15" width="79.375" height="79.375" rx="3.9688" fill="#333" stroke-width=".03858"/>
  <path d="m21.464 19.844v16.995l2.8483 2.8483-2.8483 2.8483v16.995h9.7258v-12.069l-2.7404-2.7404-0.50165 0.50168v11.066h-3.241v-12.409l1.8998-1.8998 17.551 17.551h13.753l-19.394-19.395-2.2911 2.2913 13.862 13.861h-4.5856l-12.018-12.018 24.427-24.428h-13.753l-12.967 12.967v-12.967zm3.2428 3.2419h3.241v11.066l5.5362 5.5362-2.2928 2.2928-0.0028-0.0028-2.2914-2.2914 1.8438-1.8438-2.2927-2.2928-1.8438 1.8438-1.8997-1.8997zm20.793 0h4.5856l-14.311 14.31-2.2927-2.2928z" fill="#fff" fill-rule="evenodd"/>
 </g>
</svg>
