<?xml version="1.0" standalone="no"?>
<!DOCTYPE svg PUBLIC "-//W3C//DTD SVG 20010904//EN"
 "http://www.w3.org/TR/2001/REC-SVG-20010904/DTD/svg10.dtd">
<svg version="1.0" xmlns="http://www.w3.org/2000/svg"
 width="700.000000pt" height="700.000000pt" viewBox="0 0 700.000000 700.000000"
 preserveAspectRatio="xMidYMid meet">
<metadata>
Created by potrace 1.11, written by Peter Selinger 2001-2013
</metadata>
<g transform="translate(0.000000,700.000000) scale(0.100000,-0.100000)"
fill="#000000" stroke="none">
<path d="M360 5456 l0 -1462 246 -247 246 -247 -246 -246 -246 -245 0 -1463 0
-1464 838 2 837 1 0 1040 0 1040 -212 210 c-116 116 -222 220 -236 233 l-24
23 -43 -42 -43 -43 0 -953 0 -953 -278 0 -279 0 0 1069 0 1068 161 162 c130
130 164 159 177 151 10 -5 691 -684 1515 -1509 l1499 -1499 1179 0 c648 0
1179 2 1179 5 0 3 -750 755 -1666 1671 l-1665 1665 -195 -194 c-107 -106 -194
-197 -194 -200 0 -3 536 -542 1191 -1198 l1192 -1191 -395 0 -394 0 -1036
1036 -1036 1036 2099 2099 c1154 1154 2099 2101 2099 2103 0 3 -531 4 -1180 4
l-1180 1 -1115 -1116 c-613 -613 -1115 -1111 -1116 -1107 -1 5 -2 506 -3 1114
l-1 1105 -837 2 -838 1 0 -1462z m1117 -41 c1 -517 2 -945 2 -951 1 -6 215
-225 477 -487 l476 -477 -197 -197 -198 -198 -191 192 c-105 106 -192 196
-194 202 -2 6 66 79 152 164 l155 154 -192 191 c-106 106 -195 194 -198 197
-4 3 -77 -65 -164 -152 l-157 -158 -164 165 -164 164 0 1068 0 1068 278 -2
277 -3 2 -940z m2582 -287 l-1232 -1233 -198 198 -197 198 1035 1034 1034
1035 396 0 395 0 -1233 -1232z"/>
</g>
</svg>
